<svg version="1.1" id="Layer_1" xmlns="http://www.w3.org/2000/svg" xmlns:xlink="http://www.w3.org/1999/xlink" x="0px" y="0px"
	 width="100%" viewBox="0 0 800 1008" enable-background="new 0 0 800 1008" xml:space="preserve">
<path fill="#000000" opacity="1.000000" stroke="none" 
	d="
M722.515747,428.584717 
	C722.791016,426.568451 723.014160,424.935455 723.289062,422.924500 
	C718.459778,422.990356 714.018921,424.321655 709.641113,425.547363 
	C706.057861,426.550598 704.426453,425.768097 703.722473,422.051697 
	C701.714722,411.453339 700.733215,413.232635 710.731628,410.775757 
	C712.807678,410.265594 714.877563,409.730316 717.060242,409.178833 
	C717.348938,405.697205 715.726685,403.069397 714.406921,400.520081 
	C712.675232,397.174805 712.785522,394.460876 715.954346,392.303101 
	C721.492737,388.531799 722.027710,384.040405 718.799988,378.343353 
	C716.679443,374.600708 715.156189,370.484650 713.686646,366.419678 
	C712.560791,363.305542 710.778625,362.082672 707.401794,362.065125 
	C697.539612,362.013763 695.092163,359.565613 693.628113,349.080719 
	C694.919800,347.631500 696.684021,347.995575 698.274048,348.110718 
	C716.395935,349.422974 734.582825,348.139496 752.713562,349.520660 
	C756.323547,349.795654 758.377991,350.980530 759.249939,354.261780 
	C760.225342,357.932159 763.980347,361.087250 759.703735,365.508118 
	C748.009949,377.596405 736.744568,390.099609 725.344910,402.471130 
	C724.128418,403.791321 722.500732,404.815796 721.852966,406.953918 
	C723.522156,408.230133 725.238770,407.442200 726.929321,407.044708 
	C736.969971,404.683777 747.040344,402.440704 757.036438,399.904449 
	C760.846985,398.937622 762.850830,400.086975 763.173523,403.863953 
	C763.440308,406.986694 766.652893,410.523346 762.077942,413.053406 
	C770.334473,423.455170 771.652771,434.331726 765.745361,442.863647 
	C760.045227,451.096283 747.775696,455.332947 738.207825,452.372284 
	C728.165344,449.264771 722.379761,440.664307 722.515747,428.584717 
M755.835449,433.002197 
	C756.931274,431.027649 757.129761,428.895294 756.909058,426.701111 
	C756.408813,421.728943 753.263000,418.238525 748.552185,417.401672 
	C742.879700,416.393951 736.830139,419.176300 734.513550,423.858368 
	C732.476318,427.975861 733.647461,433.338470 737.285522,436.550659 
	C742.094604,440.796814 750.175781,439.522125 755.835449,433.002197 
M729.709717,375.068176 
	C730.705261,376.415710 731.729370,375.858612 732.643494,375.026825 
	C736.997070,371.065552 741.321167,367.071899 746.413208,362.393890 
	C738.170166,362.393890 731.699463,362.393890 724.755188,362.393890 
	C725.795593,367.142822 727.834839,370.748108 729.709717,375.068176 
z"/>
<path fill="#000000" opacity="1.000000" stroke="none" 
	d="
M337.082886,884.108765 
	C333.074524,878.585083 334.003296,872.171570 332.791626,866.258850 
	C331.306061,859.009644 330.530762,851.614868 328.417877,844.065735 
	C324.096619,852.246338 319.773834,860.426086 315.455841,868.608398 
	C314.834106,869.786560 314.241364,870.980042 313.625183,872.161194 
	C309.313324,880.426392 305.966003,881.375916 297.182037,876.809448 
	C296.680786,875.367676 297.584473,874.250610 298.175110,873.114441 
	C306.162903,857.749146 314.310455,842.464905 322.106079,827.003113 
	C324.085114,823.077820 326.511230,822.003967 330.465759,823.185852 
	C331.727448,823.562988 333.084412,823.654419 334.406647,823.789551 
	C338.258942,824.183167 340.001678,825.993835 340.508667,830.139526 
	C341.835815,840.991943 343.780792,851.768860 345.716125,864.081482 
	C347.924530,860.131348 349.527802,857.367310 351.033081,854.550903 
	C354.879211,847.354614 358.782074,840.185486 362.450928,832.899170 
	C363.866577,830.087708 365.655640,828.811951 368.762909,829.642822 
	C369.238831,829.770203 369.764618,829.701050 370.250671,829.802612 
	C381.025574,832.053833 379.177979,829.508728 380.909332,839.992737 
	C383.480438,855.562256 385.791595,871.174866 388.146271,886.779297 
	C388.390137,888.395508 388.179016,890.080444 388.179016,892.083557 
	C384.002289,893.009949 380.053314,891.451904 376.099701,890.634888 
	C373.988892,890.198669 373.934753,887.995972 373.658997,886.144897 
	C371.927094,874.519897 370.140137,862.903015 368.246796,850.465149 
	C364.630524,854.991638 362.696564,859.535828 360.349579,863.815796 
	C357.387695,869.217224 354.185760,874.529541 351.760498,880.169678 
	C349.698486,884.965088 346.912140,886.906494 341.852448,885.258606 
	C340.435272,884.797058 338.938293,884.580750 337.082886,884.108765 
z"/>
<path fill="#000000" opacity="1.000000" stroke="none" 
	d="
M152.502930,728.381042 
	C162.314301,727.750427 170.193130,731.379700 176.918427,737.538757 
	C183.051544,743.155518 188.765518,749.227417 194.810028,754.944641 
	C197.237213,757.240417 196.925217,758.862854 194.710983,761.100159 
	C183.004745,772.928406 171.357452,784.816772 159.833023,796.821838 
	C157.267212,799.494812 155.479477,799.555542 152.911987,796.872070 
	C146.701736,790.381226 139.893204,784.430969 134.006973,777.669739 
	C126.441040,768.979187 123.198967,758.770996 127.835503,747.581726 
	C132.269913,736.880310 140.303894,730.136780 152.502930,728.381042 
M142.197418,768.181519 
	C145.383270,773.122314 149.755264,776.871826 153.373627,780.114502 
	C161.959930,771.998291 170.127457,764.277954 178.777161,756.101807 
	C175.569046,753.007690 172.693176,750.034912 169.607544,747.298645 
	C162.797928,741.259888 154.453247,740.364319 148.116531,744.970398 
	C141.788666,749.570190 136.289810,757.861145 142.197418,768.181519 
z"/>
<path fill="#000000" opacity="1.000000" stroke="none" 
	d="
M743.365845,597.969299 
	C730.019104,591.835754 723.761169,580.037354 725.864868,564.570740 
	C726.981750,556.359131 728.883484,548.257019 730.240967,540.074036 
	C730.767578,536.899475 732.099182,535.979309 735.305054,536.576294 
	C752.120422,539.707397 768.963745,542.690125 785.811218,545.645081 
	C788.651550,546.143188 789.244141,547.554993 788.722778,550.208496 
	C787.058777,558.677429 785.854492,567.245789 783.941589,575.654968 
	C779.452515,595.388672 763.130981,604.390747 743.365845,597.969299 
M759.874451,555.823242 
	C753.543518,554.800537 747.325806,552.963806 740.679321,552.892700 
	C738.890625,558.349182 737.972778,563.701294 738.129333,569.220947 
	C738.386597,578.294067 743.520508,583.770630 753.263977,585.433472 
	C761.103088,586.771301 768.750916,582.426941 771.375549,574.633423 
	C772.797180,570.412354 773.373779,565.909851 774.392151,561.548462 
	C774.887878,559.425659 773.955872,558.411804 771.981262,558.058044 
	C768.224121,557.385010 764.466797,556.712585 759.874451,555.823242 
z"/>
<path fill="#000000" opacity="1.000000" stroke="none" 
	d="
M330.048340,146.707916 
	C329.348572,141.327972 328.770477,136.378220 328.130676,131.436462 
	C327.896484,129.627747 327.908752,127.949448 330.194885,127.683937 
	C342.337524,126.273750 354.325195,122.340851 366.709686,124.614464 
	C381.582458,127.344894 389.866211,137.305191 390.694000,152.755264 
	C391.389771,165.740616 383.349548,177.036209 370.061615,181.188705 
	C359.846375,184.381027 349.072418,184.410645 338.594391,186.156067 
	C335.264435,186.710770 335.015411,184.170715 334.700958,181.708099 
	C333.228882,170.179901 331.672119,158.662506 330.048340,146.707916 
M367.905640,138.437302 
	C360.920715,134.400986 353.641174,136.796890 346.463806,137.539185 
	C344.342072,137.758606 344.090515,139.606293 344.252045,141.375229 
	C344.583649,145.006943 344.746216,148.674286 345.389740,152.252975 
	C346.580963,158.877808 346.579285,165.729950 348.809814,172.517303 
	C353.036194,171.936981 356.954498,171.436600 360.860657,170.854446 
	C368.010651,169.788788 373.421875,166.285095 375.495880,159.115875 
	C377.806396,151.128952 375.078735,143.762634 367.905640,138.437302 
z"/>
<path fill="#000000" opacity="1.000000" stroke="none" 
	d="
M512.605103,199.120239 
	C516.878540,203.658813 521.149597,207.606262 526.975220,209.316223 
	C533.593018,211.258743 537.840332,209.333832 540.319397,203.069473 
	C532.562500,203.898483 525.773682,201.813217 519.988220,196.811584 
	C516.203735,193.539764 513.896973,189.335800 512.923035,184.458221 
	C511.100464,175.330139 516.427917,164.906891 524.959290,160.718231 
	C534.965271,155.805588 545.253479,158.646698 554.670227,168.922989 
	C557.667480,167.291916 565.537354,168.701065 567.749084,171.242142 
	C568.829224,172.483109 568.345520,173.749649 567.831299,174.980453 
	C563.018372,186.499756 558.621155,198.219406 553.235962,209.465576 
	C547.641174,221.149338 538.799072,224.704773 526.337952,221.174942 
	C519.374817,219.202515 513.069275,215.805115 507.837585,210.677917 
	C502.747833,205.689850 502.844055,204.845703 508.753448,200.563522 
	C509.814392,199.794708 510.763397,198.755173 512.605103,199.120239 
M536.354492,192.138428 
	C542.741211,193.038498 547.605347,189.964493 548.693359,184.340500 
	C549.855713,178.332870 546.602600,173.464188 540.248535,171.701630 
	C534.510254,170.109863 529.480469,172.603287 527.396667,178.072739 
	C525.085693,184.138489 527.908264,188.880890 536.354492,192.138428 
z"/>
<path fill="#000000" opacity="1.000000" stroke="none" 
	d="
M218.952652,842.091675 
	C221.716339,837.314941 224.300308,832.863464 227.322098,827.657776 
	C218.540848,827.917419 211.881195,824.828735 207.041077,818.295044 
	C204.195770,814.454224 202.641678,810.138733 202.694901,805.267517 
	C202.811340,794.608887 210.586227,784.336182 220.808975,781.461792 
	C230.547531,778.723572 240.692535,783.430847 246.804993,793.524109 
	C249.777954,792.402771 258.409912,795.449951 259.702148,798.051147 
	C260.438232,799.532715 259.498627,800.640137 258.856537,801.740601 
	C249.624374,817.562744 240.323990,833.345276 231.133804,849.191711 
	C229.723465,851.623474 228.216660,852.087891 225.900040,850.591919 
	C223.942841,849.328003 221.911118,848.179016 219.905991,846.989868 
	C217.974991,845.844788 217.489166,844.352966 218.952652,842.091675 
M216.848221,808.697083 
	C217.377731,809.910950 217.752777,811.225220 218.464584,812.320679 
	C220.995514,816.215515 225.912125,818.041626 230.160599,816.800049 
	C235.160980,815.338745 239.317520,809.696472 239.307617,804.383423 
	C239.298553,799.533203 235.998138,795.557983 230.721741,794.042175 
	C226.672775,792.878967 221.934738,794.883240 219.258911,799.100464 
	C217.559891,801.778198 216.201813,804.639893 216.848221,808.697083 
z"/>
<path fill="#000000" opacity="1.000000" stroke="none" 
	d="
M33.801598,509.662109 
	C33.823730,500.951019 33.823730,500.951019 37.213345,498.295776 
	C32.096935,486.434204 33.947193,475.866333 42.367104,468.859985 
	C50.274467,462.280182 63.204002,462.043671 72.209267,468.314117 
	C81.368439,474.691742 83.120583,484.375671 77.770027,499.905945 
	C81.922844,501.458679 86.264366,500.708588 90.462105,500.807770 
	C94.723015,500.908417 96.368851,502.476593 96.175629,506.823273 
	C95.804428,515.174194 95.700035,515.478455 87.310143,515.125488 
	C71.700500,514.468750 56.090115,513.817078 40.487614,513.015747 
	C38.053486,512.890747 34.907555,513.671082 33.801598,509.662109 
M53.602905,499.174133 
	C55.701233,499.915771 57.891319,499.841034 60.017776,499.587646 
	C66.597008,498.803619 70.901016,492.356537 69.094368,486.179657 
	C67.503433,480.740265 63.373158,478.055267 56.836567,478.211090 
	C50.945816,478.351562 47.296310,481.196594 46.060165,486.612061 
	C44.834629,491.981110 46.928699,495.747375 53.602905,499.174133 
z"/>
<path fill="#000000" opacity="1.000000" stroke="none" 
	d="
M727.181885,460.867249 
	C741.598877,459.907288 755.557068,459.094208 769.490295,457.971313 
	C773.458679,457.651489 775.189209,459.100220 775.097229,462.845367 
	C775.016479,466.127777 776.773010,469.897156 772.877075,472.266663 
	C780.114929,484.614929 778.088562,496.088562 768.905334,503.858582 
	C761.419556,510.192413 748.278809,510.894531 740.277893,505.577728 
	C730.698608,499.212067 728.339722,489.861542 732.647949,474.873016 
	C727.614685,475.116730 722.640015,475.244446 717.686951,475.641937 
	C714.922180,475.863831 713.587524,474.973694 713.612671,472.123383 
	C713.622864,470.968872 713.342102,469.811890 713.195251,468.655823 
	C712.401123,462.404938 712.822876,461.963928 719.261169,461.641876 
	C721.751526,461.517334 724.229797,461.152069 727.181885,460.867249 
M759.653137,493.409424 
	C765.130676,489.043243 766.696411,482.590149 763.458313,477.726501 
	C760.262207,472.925964 751.896240,471.646698 746.326050,475.106781 
	C741.729187,477.962250 740.178772,484.100525 742.779480,489.148193 
	C745.449402,494.330261 751.420166,496.027527 759.653137,493.409424 
z"/>
<path fill="#000000" opacity="1.000000" stroke="none" 
	d="
M588.371155,827.535400 
	C576.543213,828.813904 565.594849,820.483826 562.880005,808.527527 
	C559.794678,794.939758 566.622437,786.110168 585.616760,779.772583 
	C583.162964,775.724304 580.919617,771.703125 578.353943,767.899353 
	C576.552979,765.229187 576.795593,763.620117 579.666687,761.933350 
	C589.857056,755.946411 587.260437,755.968628 592.887817,764.776001 
	C601.404846,778.106079 609.446716,791.739746 617.955444,805.075317 
	C620.278076,808.715454 619.786011,810.797302 615.965454,812.279785 
	C613.072327,813.402466 610.879395,817.882141 606.863159,814.055908 
	C602.997437,821.555420 597.185364,826.291382 588.371155,827.535400 
M584.583618,814.166443 
	C591.042603,815.259766 596.246460,812.858582 598.161316,807.901367 
	C600.005310,803.127258 597.397400,796.057495 592.692200,793.075134 
	C588.226318,790.244385 582.823608,790.906250 579.046875,794.746582 
	C573.660522,800.223877 575.864319,808.902344 584.583618,814.166443 
z"/>
<path fill="#000000" opacity="1.000000" stroke="none" 
	d="
M190.480377,186.330475 
	C193.605057,185.521851 194.106384,187.978210 195.088669,189.514221 
	C200.468582,197.926804 205.605179,206.497543 211.098831,214.833740 
	C213.968277,219.187897 217.834000,222.297424 223.647781,220.892883 
	C232.575745,218.735992 236.601028,210.996368 232.265549,202.915207 
	C227.473633,193.983276 222.052368,185.366425 216.511826,176.868851 
	C213.983231,172.990723 214.186707,170.671875 218.497009,168.800171 
	C220.005829,168.145004 221.342606,167.082199 222.732117,166.166351 
	C224.854797,164.767212 226.359390,165.291763 227.656021,167.427063 
	C233.357498,176.816254 239.528488,185.945740 244.771881,195.581497 
	C251.965836,208.801697 247.887924,221.589066 234.615280,229.745468 
	C220.908356,238.168747 207.982010,236.015564 199.220001,223.298309 
	C193.182907,214.535995 187.866379,205.279724 182.114807,196.316742 
	C180.327957,193.532150 180.922318,191.830093 183.745010,190.376801 
	C185.958328,189.237274 188.017548,187.798447 190.480377,186.330475 
z"/>
<path fill="#000000" opacity="1.000000" stroke="none" 
	d="
M142.693634,291.749756 
	C142.950043,285.825012 139.405106,282.504578 135.571594,279.463348 
	C128.530365,273.877319 121.466614,268.313904 114.265213,262.937988 
	C110.996727,260.498016 110.082909,258.561615 113.122673,254.981491 
	C119.818047,247.096024 118.034767,247.696671 125.555817,253.463898 
	C132.555969,258.831696 139.626328,264.123688 146.397507,269.770691 
	C156.099747,277.862091 158.797348,288.406128 154.237045,298.749756 
	C148.505249,311.750488 137.480759,318.868225 125.391624,317.306213 
	C120.451294,316.667908 116.267883,314.232269 112.402870,311.294556 
	C104.584846,305.352325 96.938690,299.181549 89.056206,293.327820 
	C86.122787,291.149384 86.305145,289.404541 88.400444,286.812286 
	C95.530533,277.991028 93.143356,278.182068 102.131165,284.955231 
	C108.644135,289.863403 114.898384,295.123627 121.515312,299.883057 
	C131.117172,306.789490 139.274185,303.694427 142.693634,291.749756 
z"/>
<path fill="#000000" opacity="1.000000" stroke="none" 
	d="
M289.698303,140.959946 
	C287.471130,149.879745 285.564636,158.501740 283.118561,166.967865 
	C282.072906,170.586975 283.059113,172.473358 286.038757,174.302078 
	C293.560699,178.918564 300.953796,183.745544 308.379059,188.518402 
	C309.740936,189.393799 311.437439,189.913803 312.325256,192.232178 
	C308.114868,194.384064 303.722992,196.162827 299.144928,197.475647 
	C297.126740,198.054413 295.719177,196.544067 294.209137,195.558472 
	C289.083710,192.213104 283.967682,188.853271 278.504822,185.274078 
	C276.183838,190.748444 275.212524,195.993774 274.482330,201.134903 
	C273.690674,206.708710 271.060303,209.844452 265.756836,211.079254 
	C263.361328,211.636993 261.319702,213.443039 258.727173,213.169464 
	C257.443817,212.157974 258.082611,211.038376 258.364288,209.939362 
	C260.595001,201.236053 262.630524,192.476471 265.126465,183.850052 
	C266.313660,179.746796 265.251373,177.352524 261.678009,175.209839 
	C254.968338,171.186539 248.474808,166.802811 241.892105,162.567871 
	C240.509689,161.678528 238.926544,161.022934 238.152008,159.416611 
	C244.530151,153.248840 251.543427,152.657379 258.789246,157.327682 
	C262.501556,159.720444 265.845673,162.849304 270.850983,164.181259 
	C272.269257,158.349869 273.594391,152.733215 275.010101,147.139465 
	C275.966339,143.361053 285.809967,137.652054 289.326752,138.853790 
	C289.646149,138.962936 289.650055,139.995361 289.698303,140.959946 
z"/>
<path fill="#000000" opacity="1.000000" stroke="none" 
	d="
M67.145844,443.321838 
	C66.283325,447.378571 68.185905,446.818817 70.344238,445.713226 
	C75.238228,443.206360 77.876633,435.952820 76.257957,429.553253 
	C75.059982,424.816925 77.406570,421.275818 82.291031,420.156067 
	C83.984062,419.767975 84.690071,420.629395 85.503349,421.772858 
	C90.343361,428.577789 88.772652,443.019836 82.193542,451.886444 
	C76.469002,459.601349 66.329330,462.676331 56.741158,459.605133 
	C46.852127,456.437592 40.687130,447.933167 40.660069,437.421814 
	C40.630779,426.044861 46.644840,416.843292 56.191799,413.671692 
	C56.979954,413.409882 57.774052,413.144226 58.585312,412.976959 
	C70.570930,410.505707 73.317101,413.236298 70.782257,424.899200 
	C69.478668,430.897095 68.390144,436.941711 67.145844,443.321838 
M59.370899,437.909637 
	C59.705524,433.884247 61.746372,430.082916 61.229927,425.889374 
	C55.425190,426.283386 52.093102,429.393494 51.583481,435.263428 
	C51.217922,439.473999 52.768009,442.866882 56.886719,444.512482 
	C59.015003,442.735779 58.469410,440.505066 59.370899,437.909637 
z"/>
<path fill="#000000" opacity="1.000000" stroke="none" 
	d="
M98.214844,611.103760 
	C105.777489,633.646179 88.246033,646.836792 72.674973,644.325806 
	C62.268799,642.647705 53.798172,633.026733 52.789532,621.551208 
	C51.874763,611.143738 57.958145,601.852783 67.843216,598.104431 
	C71.209579,596.827881 73.053848,597.418030 74.198853,600.966248 
	C76.446594,607.931763 78.912277,614.828430 81.380379,621.720398 
	C82.040634,623.564087 82.261169,625.651306 84.083702,627.304871 
	C88.000870,625.595703 87.935577,622.033081 87.911522,618.615723 
	C87.883339,614.614014 86.328484,611.192688 83.492905,608.337402 
	C79.916512,604.736267 80.117310,600.833618 83.779915,597.129761 
	C85.488892,595.401550 86.841003,596.489807 88.188515,597.339355 
	C93.210045,600.505249 96.158646,605.247192 98.214844,611.103760 
M64.140114,622.164795 
	C65.755669,628.920898 69.023315,631.659851 75.419823,631.020874 
	C73.330132,624.904541 71.287384,618.925659 69.086357,612.483459 
	C64.924080,614.630981 63.956253,617.692688 64.140114,622.164795 
z"/>
<path fill="#000000" opacity="1.000000" stroke="none" 
	d="
M623.587463,239.932297 
	C620.438721,244.009430 622.474731,247.499954 624.962646,250.657074 
	C627.281433,253.599594 630.528137,255.294159 634.224731,256.211060 
	C637.867249,257.114563 639.991333,263.393097 637.815063,266.492493 
	C636.956604,267.715179 635.625854,267.818268 634.247375,267.802582 
	C623.070312,267.675201 610.139221,254.867874 608.817749,242.593552 
	C607.684326,232.067001 616.321472,220.957886 627.737000,218.259521 
	C637.166809,216.030548 648.366211,221.357559 653.987000,230.745255 
	C659.237000,239.513702 658.056580,249.805649 651.119202,257.600830 
	C648.882019,260.114685 647.189636,259.745544 644.865723,257.719421 
	C637.966187,251.704010 630.905823,245.873001 623.587463,239.932297 
M635.954102,229.785233 
	C633.372070,229.287201 631.145142,229.725403 629.077454,232.545563 
	C634.085022,236.493896 637.916687,241.548035 643.921326,244.336868 
	C646.015686,236.584183 644.089966,233.082169 635.954102,229.785233 
z"/>
<path fill="#000000" opacity="1.000000" stroke="none" 
	d="
M129.961578,732.522827 
	C116.904984,735.232666 106.870621,730.282043 101.175735,718.648987 
	C96.438408,708.971985 98.546936,698.974121 106.896904,691.520996 
	C111.459084,687.448853 112.280205,687.526733 115.746391,692.338257 
	C120.031227,698.286194 124.300812,704.245178 128.623245,710.165649 
	C129.559586,711.448059 130.163574,713.207092 132.174500,713.286865 
	C135.929626,707.561279 133.593079,699.621155 126.161346,696.016968 
	C121.439819,693.727173 121.537941,691.046326 122.556412,686.885437 
	C123.426620,683.330200 125.308113,683.254944 128.059937,684.045837 
	C137.304047,686.702332 145.944992,698.585327 146.717102,709.737183 
	C147.341766,718.759155 141.741425,727.234802 132.217102,731.663574 
	C131.615250,731.943481 130.979355,732.150146 129.961578,732.522827 
M122.324318,716.073669 
	C119.075386,712.324829 117.083092,707.485535 112.925171,704.298218 
	C109.501717,709.462463 109.612534,713.407349 113.130119,717.380127 
	C116.137909,720.777222 119.769844,721.841614 124.418556,719.948486 
	C123.749062,718.632874 123.241112,717.634766 122.324318,716.073669 
z"/>
<path fill="#000000" opacity="1.000000" stroke="none" 
	d="
M556.856323,809.087280 
	C565.800537,818.437256 567.138184,831.099609 560.389832,840.252686 
	C553.240234,849.950012 539.269653,853.523804 529.174133,848.295532 
	C524.189636,845.714172 521.130249,841.511047 518.732117,836.611633 
	C517.205811,833.493408 518.002014,831.783081 521.206482,830.495850 
	C528.923950,827.395752 536.548462,824.063354 544.194641,820.787842 
	C545.211060,820.352417 546.135681,819.703003 547.145691,819.128296 
	C542.362305,813.652954 533.901245,814.017151 528.459412,820.564575 
	C525.247498,824.429016 522.700256,824.321350 518.816833,822.263550 
	C515.593384,820.555603 515.460388,818.827393 517.172302,815.940613 
	C524.783630,803.106201 544.555054,799.494690 556.856323,809.087280 
M537.016235,838.794861 
	C541.781738,840.697998 545.843384,839.198730 549.241821,835.858215 
	C551.395508,833.741089 552.486877,831.052307 551.106873,827.927246 
	C545.315674,829.242920 536.555237,833.180115 533.935303,835.571411 
	C534.111694,837.071899 535.288574,837.750305 537.016235,838.794861 
z"/>
<path fill="#000000" opacity="1.000000" stroke="none" 
	d="
M286.008209,822.023071 
	C281.561005,817.641052 276.650024,815.995422 270.747162,817.065796 
	C265.435455,818.028931 266.632629,812.914856 265.119507,810.454468 
	C263.728027,808.191833 265.181519,806.842102 267.411438,806.010254 
	C276.647217,802.565186 291.780701,808.299805 298.197296,817.740479 
	C303.834167,826.033997 302.811615,837.909790 295.766968,845.963745 
	C288.419373,854.364319 275.328644,856.077759 265.131622,849.973633 
	C255.164597,844.007263 251.137207,833.014709 254.837357,822.402771 
	C256.110901,818.750366 257.709869,817.250854 261.764038,819.084717 
	C267.975433,821.894287 274.419525,824.189819 280.767395,826.697144 
	C283.032501,827.591736 285.262360,828.662781 287.829498,828.674255 
	C288.522522,825.932983 287.392548,824.113037 286.008209,822.023071 
M275.684265,833.903748 
	C272.789154,832.839722 269.894073,831.775696 266.917236,830.681580 
	C266.055969,836.356384 267.938416,839.670776 272.751221,841.586731 
	C277.752502,843.577820 281.079468,842.580750 284.328583,837.925720 
	C282.014221,835.973694 279.016815,835.445312 275.684265,833.903748 
z"/>
<path fill="#000000" opacity="1.000000" stroke="none" 
	d="
M646.315735,748.475708 
	C656.430603,755.493530 660.170410,765.885803 656.482971,776.024841 
	C652.338684,787.420288 639.974426,795.546326 628.831848,794.197754 
	C618.473816,792.944153 609.577454,784.219604 608.381592,773.275269 
	C607.330200,763.652344 611.742981,756.166931 619.362244,750.590210 
	C627.710938,744.479553 636.595215,743.020386 646.315735,748.475708 
M644.549500,769.764893 
	C644.195740,768.484619 643.974792,767.148499 643.464600,765.933960 
	C641.546021,761.365662 636.799438,758.124695 632.200012,758.221252 
	C627.598694,758.317932 624.362305,760.549683 622.390747,764.688416 
	C620.212463,769.261108 621.793152,773.202698 624.749207,776.636108 
	C627.533569,779.870117 630.985474,782.303040 635.617676,781.124573 
	C641.043152,779.744263 644.076843,776.150208 644.549500,769.764893 
z"/>
<path fill="#000000" opacity="1.000000" stroke="none" 
	d="
M727.349243,615.390320 
	C721.564819,618.842346 719.747314,623.884644 720.094971,629.994812 
	C720.390869,635.193848 718.260803,637.610901 713.031921,638.468506 
	C711.088928,638.787109 710.389709,637.834534 709.679626,636.334656 
	C704.561768,625.524902 712.999878,606.985168 725.235229,602.250977 
	C737.125122,597.650391 751.865295,604.585449 755.473145,616.795227 
	C758.340271,626.498291 756.237427,635.371704 749.127014,642.612427 
	C742.894958,648.958618 735.229797,650.676086 726.608459,648.218811 
	C722.433533,647.028809 720.941040,645.091187 722.751526,640.606201 
	C726.092041,632.330750 728.922791,623.849487 731.857666,615.752563 
	C730.102356,613.973633 728.888123,614.764587 727.349243,615.390320 
M734.641113,635.796082 
	C739.468201,636.760315 742.978760,634.485107 744.879700,629.160400 
	C746.619629,624.286438 745.262146,620.554443 740.513062,617.900696 
	C738.304443,623.620117 735.876160,629.194946 734.641113,635.796082 
z"/>
<path fill="#000000" opacity="1.000000" stroke="none" 
	d="
M438.168884,172.031281 
	C439.795959,174.194504 438.596680,175.346359 437.285095,176.526184 
	C429.706940,183.343002 412.818665,182.623215 403.687866,175.077240 
	C394.990601,167.889572 392.936310,154.878723 398.966431,145.174515 
	C404.658356,136.014587 415.706299,131.979980 426.943878,134.957367 
	C437.153015,137.662292 443.394348,145.971649 443.733368,157.111176 
	C443.845673,160.802094 442.673492,162.652802 438.578918,162.406219 
	C432.269104,162.026215 425.931549,162.337723 419.620026,161.598480 
	C416.724030,161.259277 413.721008,160.818130 410.827911,161.856415 
	C411.838226,167.402725 416.617493,170.229355 423.787079,169.639328 
	C425.094696,169.531708 426.646545,169.462662 427.622253,168.745407 
	C432.484619,165.170944 435.441315,167.545578 438.168884,172.031281 
M424.318085,145.775696 
	C416.080933,144.048492 412.250214,145.787292 410.717712,152.621704 
	C417.142609,152.621704 423.433411,152.621704 430.037018,152.621704 
	C429.661835,149.573883 427.912659,147.442642 424.318085,145.775696 
z"/>
<path fill="#000000" opacity="1.000000" stroke="none" 
	d="
M679.749268,736.911682 
	C678.705750,736.583069 678.054565,736.420715 677.439819,736.169189 
	C667.924438,732.275024 667.444458,730.791077 673.344055,722.614319 
	C677.908569,716.288208 682.595337,710.050232 687.504089,703.398560 
	C682.771423,701.158325 679.350830,703.006714 676.424561,705.723694 
	C673.583130,708.361877 671.482910,711.682800 671.344910,715.730347 
	C671.122070,722.267395 666.083496,719.995361 662.810059,720.267944 
	C658.774902,720.603943 659.673645,717.115295 659.757996,714.852600 
	C660.201965,702.943787 672.095642,690.623901 684.148254,689.406921 
	C695.090942,688.301941 705.684448,696.025574 708.755981,707.169800 
	C712.640808,721.264709 699.427307,741.035156 679.749268,736.911682 
M697.002136,718.307739 
	C698.198425,714.814514 698.054382,711.607361 694.916626,708.437439 
	C690.638672,713.590881 686.841492,718.576050 683.554077,724.117310 
	C689.453125,726.429626 692.470459,725.134949 697.002136,718.307739 
z"/>
<path fill="#000000" opacity="1.000000" stroke="none" 
	d="
M66.268860,521.376770 
	C80.188919,525.058777 86.369209,543.337646 81.458878,555.531067 
	C76.588753,567.624695 63.373051,573.640991 51.054462,569.006165 
	C39.776123,564.762756 33.309719,550.296082 36.888935,537.314880 
	C40.344410,524.782532 51.721264,518.478577 66.268860,521.376770 
M57.285645,534.822021 
	C50.127598,536.784119 46.607391,541.331299 47.776489,547.105347 
	C49.056702,553.428101 54.298691,557.171753 60.514580,556.202454 
	C67.923889,555.047058 71.880569,550.632141 71.178368,544.303711 
	C70.442749,537.674072 65.890869,534.321777 57.285645,534.822021 
z"/>
<path fill="#000000" opacity="1.000000" stroke="none" 
	d="
M590.673950,237.362579 
	C586.226624,235.408722 585.432739,233.146957 588.310852,229.211990 
	C591.835754,224.392517 594.779968,219.138794 597.846680,213.996170 
	C601.499939,207.869980 601.036560,203.834396 596.542847,200.926041 
	C591.420166,197.610641 585.954224,198.562759 582.197083,203.946686 
	C578.584717,209.123154 575.267395,214.528336 572.154968,220.022537 
	C570.210083,223.455734 568.231750,224.144348 565.139771,221.592300 
	C563.996277,220.648575 562.655762,219.905838 561.321289,219.239182 
	C558.403992,217.781815 558.113708,215.844467 559.790588,213.177475 
	C566.431458,202.615341 573.061584,192.045334 579.559143,181.394958 
	C581.159363,178.772034 582.936646,178.295441 585.205872,180.121643 
	C587.957092,182.335693 592.825256,182.707611 592.149353,188.137558 
	C597.055542,188.570221 601.690674,189.598572 605.908325,192.214111 
	C614.287048,197.410065 617.290894,206.054916 613.223267,214.974503 
	C609.347778,223.472824 603.848389,231.067001 598.819641,238.889832 
	C595.931274,243.383026 593.600037,238.201431 590.673950,237.362579 
z"/>
<path fill="#000000" opacity="1.000000" stroke="none" 
	d="
M484.176331,178.875824 
	C479.786987,185.639297 473.351166,186.665848 466.444885,186.266235 
	C459.353912,185.855942 452.767120,183.698380 446.698486,179.978973 
	C444.235992,178.469757 442.746826,176.680649 445.215729,174.049408 
	C447.170837,171.965790 447.732300,167.050873 452.549652,170.409073 
	C456.712616,173.311081 461.477386,174.834488 466.471710,175.530716 
	C468.466187,175.808762 470.802124,175.802658 471.530853,173.450531 
	C472.327911,170.877945 470.074921,170.035278 468.227600,169.289810 
	C464.529572,167.797440 460.711212,166.583954 457.079376,164.951050 
	C451.291016,162.348602 448.378815,157.845795 448.719391,152.592422 
	C449.097595,146.758652 452.758240,141.978867 458.783051,140.297440 
	C468.698669,137.530212 477.810974,140.232788 486.487976,145.049362 
	C489.224457,146.568390 488.642700,148.608200 486.894531,150.331497 
	C485.085052,152.115173 485.015869,157.050507 480.557953,154.472733 
	C476.448517,152.096466 472.227264,150.363617 467.426300,150.300308 
	C465.533966,150.275360 463.497894,150.360657 462.844086,152.468475 
	C462.100861,154.864471 464.278564,155.631287 465.862823,156.335052 
	C469.806671,158.087021 473.946930,159.416290 477.823273,161.296722 
	C485.473328,165.007828 487.438080,170.472137 484.176331,178.875824 
z"/>
<path fill="#000000" opacity="1.000000" stroke="none" 
	d="
M76.478943,665.318359 
	C69.846497,665.587524 67.243423,662.920288 65.500237,654.312439 
	C72.573067,652.418396 79.916130,652.723755 87.099220,651.836243 
	C94.507568,650.920898 101.999794,650.705078 109.435249,649.978027 
	C112.313042,649.696716 114.296272,650.397095 115.393555,653.170898 
	C115.696327,653.936279 116.128296,654.674438 116.619133,655.337708 
	C119.918175,659.795471 119.727768,663.438049 115.717751,667.887390 
	C106.935356,677.631897 98.844559,687.999390 90.450859,698.095459 
	C90.052528,698.574585 89.456764,698.889587 88.727104,699.456482 
	C85.848984,696.395142 84.369514,692.721436 82.710426,689.195007 
	C81.744652,687.142395 83.429153,685.785217 84.574806,684.405151 
	C90.080612,677.773071 95.612045,671.162292 101.997276,663.509827 
	C92.845856,664.165833 84.876663,664.737122 76.478943,665.318359 
z"/>
<path fill="#000000" opacity="1.000000" stroke="none" 
	d="
M721.098877,702.676025 
	C718.901672,704.113647 718.248962,702.355652 717.375793,701.273193 
	C708.815613,690.661865 700.331116,679.988953 691.702026,669.434265 
	C689.749695,667.046265 689.401184,665.008484 690.986755,662.256287 
	C696.415039,652.833801 694.381470,653.236755 704.818420,654.519348 
	C716.346802,655.936035 727.955872,656.695618 739.528931,657.750122 
	C741.000244,657.884216 742.552002,657.821899 743.859375,659.397400 
	C743.185791,663.232544 740.645874,666.360107 738.693604,669.729004 
	C737.663635,671.506348 735.791504,670.827942 734.146973,670.660278 
	C725.428528,669.771423 716.706177,668.920959 706.612915,667.921326 
	C711.587585,674.117004 715.776733,679.371094 720.005737,684.592957 
	C726.751526,692.922302 726.762756,692.913208 721.098877,702.676025 
z"/>
<path fill="#000000" opacity="1.000000" stroke="none" 
	d="
M169.233032,224.675308 
	C166.353149,216.996826 163.974564,209.519821 160.778732,202.410202 
	C158.438828,197.204666 159.069412,193.642502 164.100510,190.905319 
	C165.239304,190.285751 166.236450,189.405792 167.277969,188.660583 
	C169.796066,189.820755 169.828918,192.263000 170.538177,194.147339 
	C178.674454,215.763657 186.732162,237.409714 194.746521,259.071655 
	C197.719635,267.107574 196.573303,269.397400 187.400238,273.438293 
	C181.386536,257.281372 175.385269,241.157822 169.233032,224.675308 
z"/>
<path fill="#000000" opacity="1.000000" stroke="none" 
	d="
M656.499390,728.504517 
	C668.251953,739.324036 679.636841,750.027771 691.297302,760.422363 
	C694.872009,763.608826 694.749390,765.897339 691.245483,768.689514 
	C689.320496,770.223633 688.134705,772.586487 685.272156,774.027405 
	C679.659851,768.918701 673.895691,763.736084 668.203735,758.475464 
	C659.903259,750.804199 651.736511,742.985718 643.338562,735.423584 
	C640.477600,732.847290 640.199219,731.080994 643.065063,728.203979 
	C649.294128,721.950745 649.144409,721.801575 656.499390,728.504517 
z"/>
<path fill="#000000" opacity="1.000000" stroke="none" 
	d="
M86.861565,586.352417 
	C68.996986,590.441040 51.480022,594.333435 34.037922,598.536499 
	C30.034161,599.501282 28.383930,598.757690 27.530083,594.569702 
	C25.549032,584.853027 25.031919,586.293152 33.847519,584.204956 
	C49.850182,580.414429 65.898964,576.818298 81.897865,573.012268 
	C85.309189,572.200684 87.713676,572.800293 87.688118,576.601196 
	C87.666527,579.809875 92.066864,583.309204 86.861565,586.352417 
z"/>
<path fill="#000000" opacity="1.000000" stroke="none" 
	d="
M153.161316,259.838165 
	C146.595535,253.177444 140.361343,246.682983 133.918472,240.402588 
	C131.403305,237.950790 130.917435,236.226105 133.680969,233.470795 
	C140.726593,226.446121 140.608398,226.317322 147.552887,233.369888 
	C158.075882,244.056641 168.528442,254.813980 179.156601,265.395020 
	C181.583954,267.811646 181.854706,269.395325 179.202133,271.836884 
	C170.468063,279.876129 173.365646,280.031281 165.015030,271.815735 
	C161.095200,267.959320 157.274872,264.001740 153.161316,259.838165 
z"/>
<path fill="#000000" opacity="1.000000" stroke="none" 
	d="
M643.529785,283.399750 
	C638.835693,278.158508 638.863892,278.189972 643.706116,273.849030 
	C652.242249,266.196594 660.825500,258.592926 669.205505,250.772110 
	C671.953552,248.207428 673.932800,248.208679 676.048950,251.215118 
	C678.002197,253.990158 682.385559,255.607010 680.177185,260.190216 
	C683.208984,261.888855 686.154968,263.401306 688.955383,265.147278 
	C691.751831,266.890839 692.545044,268.979645 689.488464,271.374603 
	C688.184021,272.396606 686.995667,273.573669 685.805054,274.732208 
	C684.026672,276.462769 682.608704,276.208557 680.693481,274.595093 
	C674.095825,269.037048 670.646362,269.020966 664.058533,274.414215 
	C660.204895,277.568970 656.595642,281.020844 652.842712,284.300415 
	C648.033386,288.503113 648.018738,288.486359 643.529785,283.399750 
z"/>
<path fill="#000000" opacity="1.000000" stroke="none" 
	d="
M69.195770,386.731018 
	C70.633133,390.741821 73.631180,392.440002 77.035683,393.602905 
	C82.389938,395.431824 87.731369,397.310822 93.144234,398.950745 
	C96.312576,399.910645 97.350769,401.303467 96.239014,404.740753 
	C93.272270,413.913300 93.423164,413.957428 84.449203,410.937683 
	C74.826805,407.699707 65.274872,404.222626 55.546688,401.341156 
	C50.582108,399.870636 49.472748,397.524139 51.669483,393.081818 
	C53.016823,390.357178 52.581650,385.996246 57.958168,387.228760 
	C56.716434,383.143280 56.261196,379.405884 57.106033,375.573486 
	C57.690155,372.923767 59.045624,371.854126 61.720619,372.838043 
	C63.282722,373.412598 64.826088,374.095642 66.438675,374.462860 
	C69.389023,375.134583 70.181313,376.776245 69.279289,379.573547 
	C68.563225,381.794159 67.924797,384.074219 69.195770,386.731018 
z"/>
<path fill="#000000" opacity="1.000000" stroke="none" 
	d="
M511.496216,861.584106 
	C508.171844,862.561157 505.114319,864.116577 503.086212,860.017395 
	C500.234497,863.117737 497.411896,865.650513 493.766479,867.114990 
	C491.431183,868.053101 489.950012,867.610474 489.330505,864.997314 
	C488.870758,863.057800 488.263824,861.152771 487.707397,859.236694 
	C487.024506,856.885193 487.863800,855.700867 490.211334,854.765930 
	C497.989380,851.668274 499.678589,848.147461 497.591309,839.993774 
	C496.229919,834.675659 494.834381,829.360413 493.225830,824.113831 
	C492.228699,820.861389 493.099731,819.294250 496.418427,818.269653 
	C505.342499,815.514160 505.289886,815.387024 507.764893,824.250305 
	C510.536896,834.177246 513.142151,844.156860 516.205872,853.993469 
	C517.618408,858.528564 516.876709,861.026001 511.496216,861.584106 
z"/>
<path fill="#000000" opacity="1.000000" stroke="none" 
	d="
M489.621307,181.736511 
	C492.607300,171.091400 495.606995,160.873016 498.352631,150.586807 
	C499.205444,147.391754 500.611115,146.812958 503.711945,147.617905 
	C513.113647,150.058395 513.127502,149.929993 510.503479,159.155975 
	C507.682037,169.076248 504.636383,178.943939 502.213745,188.961578 
	C501.054504,193.755035 498.862549,194.117523 494.785522,192.841415 
	C486.983643,190.399460 486.935974,190.551758 489.621307,181.736511 
z"/>
<path fill="#000000" opacity="1.000000" stroke="none" 
	d="
M101.534233,349.675049 
	C106.082542,344.824493 111.521431,344.492401 115.098869,348.517639 
	C118.381638,352.211365 117.822182,357.805420 113.860229,360.903107 
	C110.037315,363.892029 104.389435,362.989166 101.541702,358.933441 
	C99.486145,356.005890 99.696671,353.026917 101.534233,349.675049 
z"/>
<path fill="#000000" opacity="1.000000" stroke="none" 
	d="
M444.647339,844.809448 
	C439.480225,841.734741 437.790527,838.227539 439.299652,834.079712 
	C440.777924,830.016541 443.818787,827.735779 448.074219,828.114990 
	C452.569458,828.515625 455.231140,831.451233 455.848328,835.936096 
	C456.613983,841.499390 451.937195,845.334778 444.647339,844.809448 
z"/>
<path fill="#000000" opacity="1.000000" stroke="none" 
	d="
M677.577271,314.683777 
	C681.551453,311.718658 685.321472,311.596222 688.716675,314.674316 
	C691.837585,317.503754 692.709167,321.214233 690.708862,325.038239 
	C688.799011,328.689423 685.385498,329.871643 681.438110,329.244507 
	C675.000244,328.221680 672.962341,321.094482 677.577271,314.683777 
z"/>
<path fill="#000000" opacity="1.000000" stroke="none" 
	d="
M515.069092,142.089355 
	C514.001038,142.635788 513.269043,143.112595 512.478882,143.246902 
	C507.584473,144.078857 503.320038,142.235519 502.045990,138.488922 
	C500.806061,134.842545 501.475708,131.531876 504.959229,129.320602 
	C508.272369,127.217484 513.655518,128.109253 516.325745,131.269653 
	C519.518555,135.048584 518.636597,138.592972 515.069092,142.089355 
z"/>
</svg>